<svg width="1039" height="580" viewBox="0 0 1039 580" fill="white" xmlns="http://www.w3.org/2000/svg">
<g filter="url(#filter0_f_237_4056)">
<path d="M984.477 580H984.116C969.653 560.539 955.469 540.619 941.334 520.766C894.683 455.241 848.545 390.433 794.509 345.32C669.918 241.302 503.267 242.032 191.388 580H190.993C503.148 241.668 669.96 240.957 794.69 345.092C848.753 390.23 894.903 455.051 941.565 520.594C955.741 540.507 969.967 560.486 984.475 580M996.763 580H996.388C977.934 557.243 959.849 533.615 941.785 510.016C891.649 444.51 841.673 379.217 784.391 333.373C650.05 225.863 475.428 225.386 164.068 580H163.682C475.305 225.024 650.088 225.519 784.57 333.144C841.883 379.01 891.867 444.316 942.013 509.835C960.125 533.498 978.258 557.19 996.765 580.002L996.763 580ZM1011.23 580H1010.85C988.12 554.237 965.813 526.999 943.458 499.7C889.542 433.864 835.335 367.672 774.267 320.972C629.75 210.457 446.722 209.164 138.008 580H137.628C446.587 208.802 629.775 210.111 774.437 320.736C835.533 367.456 889.75 433.661 943.678 499.51C966.089 526.876 988.448 554.182 1011.23 580ZM1027.9 580H1027.5C1000.31 551.581 973.497 520.85 946.496 489.897C888.397 423.301 829.413 355.69 763.873 307.966C608.827 195.067 417.013 193.549 113.245 580H112.877C416.87 193.189 608.846 194.723 764.039 307.728C829.602 355.467 888.596 423.092 946.708 489.701C973.771 520.724 1000.65 551.526 1027.9 580H1027.9ZM1039 572.424V572.832C1009.74 544.078 980.589 512.589 951.076 480.699C888.262 412.832 823.773 343.152 752.897 294.207C587.068 179.693 386.194 178.754 89.8361 580H89.4766C386.043 178.397 587.081 179.346 753.057 293.964C823.96 342.929 888.461 412.62 951.283 480.498C980.729 512.313 1009.81 543.729 1039 572.426V572.424ZM1039 553.358V553.76C1012.1 528.145 984.982 500.418 957.413 472.227C889.228 402.501 818.277 329.947 740.967 279.55C564.223 164.333 354.187 165.004 67.8384 579.997H67.4872C354.027 164.649 564.229 163.989 741.123 279.303C818.458 329.716 889.419 402.282 957.617 472.019C985.115 500.14 1012.16 527.799 1039 553.361V553.358ZM1039 534.242V534.639C1015.02 512.481 990.639 488.793 965.78 464.635C891.425 392.386 812.77 315.961 727.668 263.873C540.02 149.016 320.96 152.53 47.3181 579.997H46.9753C320.787 152.182 540.016 148.672 727.817 263.621C812.947 315.727 891.614 392.164 965.979 464.423C990.772 488.513 1015.08 512.139 1039 534.242H1039ZM1039 515.082V515.472C1018.61 497.171 997.785 477.86 976.512 458.139C895.078 382.639 807.133 301.105 712.548 247.087C514.168 133.796 286.533 141.566 28.3377 580H28.0031C286.353 141.219 514.153 133.452 712.687 246.834C807.299 300.867 895.256 382.411 976.704 457.923C997.91 477.582 1018.67 496.833 1039 515.082ZM1039 495.877V496.263C1023.03 482.323 1006.71 467.823 990.051 453.02C900.551 373.502 801.281 285.302 695.137 229.163C486.393 118.763 251.031 132.414 11.0238 580H10.6955C250.837 132.07 486.368 118.419 695.268 228.903C801.441 285.055 900.726 373.268 990.24 452.799C1006.83 467.545 1023.09 481.99 1039 495.879L1039 495.877ZM1039 476.633V477.015C1028.51 468.101 1017.84 458.969 1006.99 449.682C908.462 365.381 795.232 268.495 674.961 210.12C457.943 104.788 217.968 124.902 0 570.57V569.907C217.999 124.545 458.014 104.497 675.084 209.855C795.388 268.248 908.635 365.147 1007.17 449.459C1017.96 458.691 1028.57 467.77 1039 476.635V476.633ZM1039 457.353V457.733C1035.41 454.759 1031.79 451.762 1028.15 448.744C919.86 358.986 789.191 250.683 651.578 190.063C431.102 92.9388 192.776 118.291 0 538.394V537.703C192.822 117.938 431.175 92.6496 651.692 189.792C789.341 250.427 920.026 358.743 1028.33 448.515C1031.91 451.481 1035.47 454.428 1039 457.353ZM1039 438.04V438.416C923.147 344.828 776.698 229.137 624.572 169.163C402.7 81.6897 168.742 112.801 0 503.872V503.153C168.806 112.45 402.777 81.405 624.676 168.887C776.767 228.85 923.162 344.466 1039 438.04ZM1039 418.695V419.068C916.807 322.714 756.781 204.219 593.61 147.678C372.899 71.2023 146.428 108.154 0 466.585V465.825C146.514 107.799 372.984 70.9197 593.699 147.4C756.839 203.928 916.814 322.356 1039 418.697V418.695ZM1039 399.324V399.693C897.555 290.739 700.662 155.181 509.621 113.304C310.06 69.5644 116.898 128.11 0 426.012V425.229C116.989 127.737 310.135 69.2796 509.679 113.017C700.697 154.888 897.544 290.375 1039 399.324ZM1039 379.926V380.292C894.847 271.742 688.472 138.553 491.846 98.2476C293.164 57.5207 104.453 111.669 0 381.965V381.177C104.565 111.298 293.251 57.2381 491.904 97.9584C688.502 138.259 894.832 271.382 1039 379.926ZM1039 360.5V360.865C892.528 252.968 677.316 122.54 475.521 83.4667C396.846 68.2333 320.214 66.8868 250.497 86.1796C180.786 105.47 117.989 145.4 66.9739 212.718C41.5122 246.317 18.9867 286.739 0 334.821V334.04C18.941 286.227 41.3875 245.999 66.7454 212.539C117.802 145.169 180.653 105.205 250.42 85.8971C320.18 66.5932 396.856 67.9375 475.573 83.1797C677.341 122.247 892.505 252.615 1039 360.503V360.5ZM1039 341.051V341.411C882.795 228.779 643.588 93.6363 428.27 63.6661C354.415 53.3862 283.373 55.481 219.46 75.105C155.555 94.7268 98.7756 131.875 53.4358 191.701C33.2231 218.375 15.2837 249.56 0 285.704V284.96C15.2359 249.056 33.0984 218.06 53.2093 191.522C98.5865 131.644 155.416 94.4641 219.379 74.8246C283.331 55.1896 354.413 53.0926 428.307 63.377C643.602 93.3449 882.763 228.426 1039 341.053V341.051ZM1039 321.577V321.934C925.485 241.768 765.739 151.268 603.264 95.7488C481.861 54.2647 358.941 32.3119 252.66 48.7991C146.399 65.2842 56.7689 120.196 1.92007 232.437C1.27381 233.759 0.635868 235.09 0 236.426V235.755C0.55067 234.6 1.1055 233.448 1.66448 232.304C56.5611 119.966 146.266 65.006 252.616 48.51C358.945 32.0161 481.911 53.9755 603.354 95.4729C765.778 150.974 925.477 241.428 1039 321.579V321.577ZM1039 302.088V302.441C917.663 218.464 740.913 124.359 564.603 71.3259C444.563 35.2191 324.733 18.1535 222.755 36.2897C128.709 53.0197 49.845 99.6913 0 188.988V188.396C49.9052 99.3049 128.734 52.7151 222.708 36.0027C324.733 17.8577 444.605 34.9277 564.684 71.0455C740.944 124.063 917.647 218.126 1039 302.088ZM1039 282.576V282.929C909.605 195.118 714.402 97.5986 524.103 47.8279C406.037 16.9527 289.866 4.45425 192.489 24.065C112.534 40.1681 45.2568 77.9261 0 144.928V144.409C45.2983 77.5596 112.544 39.8657 192.435 23.7758C289.856 4.15625 406.07 16.6569 524.175 47.5453C714.427 97.3028 909.58 194.78 1039 282.578V282.576ZM1039 263.049V263.4C901.459 171.832 686.571 71.2265 482.482 25.4601C366.902 -0.459467 254.792 -8.79027 162.175 12.0699C96.3506 26.8949 40.3776 56.4766 0 104.965V104.51C40.4025 56.1234 96.3465 26.5947 162.115 11.7807C254.773 -9.09048 366.925 -0.757469 482.543 25.1709C686.586 70.9285 901.424 171.49 1039 263.049ZM219.51 579.997C530.256 258.568 689.543 256.431 804.998 356.715C856.234 401.218 898.833 465.876 942.215 531.726C952.829 547.838 963.492 564.02 974.339 579.997H973.988C963.178 564.073 952.553 547.946 941.976 531.889C898.604 466.055 856.018 401.413 804.813 356.938C689.495 256.774 530.368 258.93 219.913 579.997H219.51Z" fill="white"/>
</g>
<defs>
<filter id="filter0_f_237_4056" x="-2" y="-2.00195" width="1043" height="584.004" filterUnits="userSpaceOnUse" color-interpolation-filters="sRGB">
<feFlood flood-opacity="0" result="BackgroundImageFix"/>
<feBlend mode="normal" in="SourceGraphic" in2="BackgroundImageFix" result="shape"/>
<feGaussianBlur stdDeviation="1" result="effect1_foregroundBlur_237_4056"/>
</filter>
</defs>
</svg>
